Genre:Crime | Drama | Thriller | Western 
Language:English
IMDb:http://www.imdb.com/title/tt0954947/
Source:BluRay.X264-QCF


Complete name :The.Killer.Inside.Me.2010.BRRip 480p.H264.FEEL-FREE
Format : MPEG-4
Format profile : Base Media
Codec ID : isom
File size : 1.16 GiB
Duration : 1h 49mn
Overall bit rate : 1 524 Kbps
Video #1
ID : 1
Format : MPEG-4 Visual
Format profile : Simple@L1
Format settings, BVOP : No
Format settings, QPel : No
Format settings, GMC : No warppoints
Format settings, Matrix : Default (H.263)
Codec ID : 20
Duration : 1h 49mn
Bit rate mode : Variable
Bit rate : 1 200 Kbps
Width : 720 pixels
Height : 304 pixels
Display aspect ratio : 2.35:1
Frame rate mode : Constant
Frame rate : 24.390 fps
Resolution : 24 bits
Colorimetry : 4:2:0
Scan type : Progressive
Bits/(Pixel*Frame) : 0.225
Stream size : 938 MiB (79%)

Audio #2
ID : 2
Format : AAC
Format/Info : Advanced Audio Codec
Format version : Version 4
Format profile : LC
Format settings, SBR : No
Codec ID : 40
Duration : 1h 49mn
Bit rate mode : Variable
Bit rate : 320 Kbps
Channel(s) : 6 channels
Channel positions : Front: L C R, Rear: L R, LFE
Sampling rate : 48.0 KHz
Resolution : 16 bits
Stream size : 249 MiB (21%)

Plot:
A West Texas deputy sheriff is slowly unmasked as a psychotic killer


 
http://thepiratebay.org/user/hiest



Screenshots:
 
http://www.starshare.ro/bitbucket/The.Killer.Inside.Me.2010.BRRip%20480p.H264.FEEL-FREE.mp4_thumbs_%5B2010.08.22_22.29.58%5D.jpg
 
http://www.starshare.ro/bitbucket/vlcsnap-2010-08-22-22h28m55s229.jpg
 
http://www.starshare.ro/bitbucket/vlcsnap-2010-08-22-22h29m09s99.jpg
 
http://www.starshare.ro/bitbucket/vlcsnap-2010-08-22-22h29m29s48.jpg